<svg version="1.1" id="Layer_1" xmlns="http://www.w3.org/2000/svg" xmlns:xlink="http://www.w3.org/1999/xlink" x="0px" y="0px"
	 width="100%" viewBox="0 0 225 225" enable-background="new 0 0 225 225" xml:space="preserve">
<path fill="#1877F2" opacity="1.000000" stroke="none" 
	d="
M101.000000,1.000001 
	C108.354256,1.000000 115.708504,1.000000 123.673325,1.298721 
	C126.165871,1.794051 128.057190,1.926120 129.928467,2.196730 
	C174.165680,8.593961 210.818802,41.380566 222.153641,84.778587 
	C223.639084,90.465958 224.727615,96.256981 226.000000,102.000000 
	C226.000000,109.687576 226.000000,117.375153 225.643463,125.711586 
	C222.098480,151.181870 212.256912,172.896866 194.904373,191.046860 
	C177.547455,209.201416 156.540482,220.399612 131.456085,224.211594 
	C131.456085,198.076309 131.456085,172.227097 131.456085,145.979782 
	C140.231491,145.979782 148.660431,145.979782 157.654404,145.979782 
	C159.104691,134.849915 160.514359,124.031822 161.820587,113.132996 
	C161.485580,112.907516 161.244690,112.909676 160.537872,113.171295 
	C151.056274,113.210548 142.031265,113.137260 132.894180,112.987000 
	C132.532059,112.781807 132.279327,112.795547 131.661896,112.724838 
	C131.514694,103.866104 131.170532,95.171326 132.125702,86.621727 
	C132.855469,80.089645 139.980148,74.923439 145.509964,75.291214 
	C150.442444,75.619255 155.393219,75.955597 160.323547,75.824295 
	C161.488022,75.793282 163.555420,73.931892 163.589798,72.860619 
	C163.861267,64.397942 163.740662,55.922688 163.740662,46.218689 
	C152.602615,45.876179 141.760406,44.525558 131.114029,45.444317 
	C113.384476,46.974342 101.386528,58.052834 97.407158,74.716461 
	C96.523788,78.415573 96.243027,82.258583 95.382538,86.249741 
	C94.724884,88.192368 94.091934,89.915901 94.062614,91.649635 
	C93.941887,98.789177 94.004463,105.931824 93.541794,113.181458 
	C85.058540,113.217400 77.033142,113.145203 68.880478,113.004768 
	C68.462845,112.855972 68.202682,112.926842 67.743904,113.486847 
	C67.515083,124.410164 67.515083,134.995758 67.515083,146.104050 
	C76.951942,146.104050 86.178383,146.104050 95.631836,146.104050 
	C95.631836,172.357101 95.631836,198.084305 95.631836,223.957108 
	C94.800026,224.007980 94.153130,224.133621 93.526619,224.067154 
	C92.372978,223.944778 91.211342,223.789627 90.087547,223.509659 
	C44.285858,212.098709 15.413759,183.615128 3.749920,137.813873 
	C2.752327,133.896530 1.912902,129.938904 1.000000,126.000000 
	C1.000000,119.645599 1.000000,113.291206 1.260891,106.251923 
	C1.347855,104.378021 1.173927,103.189011 1.000000,102.000000 
	C1.000000,102.000000 1.000000,101.500000 1.358283,101.072128 
	C7.322927,54.037731 39.857334,16.686445 85.348557,4.700155 
	C90.530907,3.334682 95.781204,2.227141 101.000000,1.000001 
z"/>
<path fill="#FEFEFF" opacity="1.000000" stroke="none" 
	d="
M95.684799,86.035339 
	C96.243027,82.258583 96.523788,78.415573 97.407158,74.716461 
	C101.386528,58.052834 113.384476,46.974342 131.114029,45.444317 
	C141.760406,44.525558 152.602615,45.876179 163.740662,46.218689 
	C163.740662,55.922688 163.861267,64.397942 163.589798,72.860619 
	C163.555420,73.931892 161.488022,75.793282 160.323547,75.824295 
	C155.393219,75.955597 150.442444,75.619255 145.509964,75.291214 
	C139.980148,74.923439 132.855469,80.089645 132.125702,86.621727 
	C131.170532,95.171326 131.514694,103.866104 131.897736,112.837372 
	C132.665802,113.138863 132.836044,113.101418 133.006271,113.063965 
	C142.031265,113.137260 151.056274,113.210548 160.763214,113.251831 
	C161.445175,113.219826 161.924026,113.213722 161.924026,113.213722 
	C160.514359,124.031822 159.104691,134.849915 157.654404,145.979782 
	C148.660431,145.979782 140.231491,145.979782 131.456085,145.979782 
	C131.456085,172.227097 131.456085,198.076309 131.456085,224.211594 
	C156.540482,220.399612 177.547455,209.201416 194.904373,191.046860 
	C212.256912,172.896866 222.098480,151.181870 225.643463,126.180222 
	C226.000000,159.298996 226.000000,192.597977 226.000000,225.948486 
	C151.111649,225.948486 76.223251,225.948486 1.000000,225.948486 
	C1.000000,192.979858 1.000000,159.958588 1.000000,126.468658 
	C1.912902,129.938904 2.752327,133.896530 3.749920,137.813873 
	C15.413759,183.615128 44.285858,212.098709 90.087547,223.509659 
	C91.211342,223.789627 92.372978,223.944778 93.526619,224.067154 
	C94.153130,224.133621 94.800026,224.007980 95.631836,223.957108 
	C95.631836,198.084305 95.631836,172.357101 95.631836,146.104050 
	C86.178383,146.104050 76.951942,146.104050 67.515083,146.104050 
	C67.515083,134.995758 67.515083,124.410164 68.006729,113.524338 
	C68.668175,113.173744 68.837959,113.123375 69.007744,113.073013 
	C77.033142,113.145203 85.058540,113.217400 93.971786,113.186920 
	C95.180855,112.231369 95.777794,111.379364 95.780464,110.525497 
	C95.805969,102.362297 95.730965,94.198769 95.684799,86.035339 
z"/>
<path fill="#FEFEFF" opacity="1.000000" stroke="none" 
	d="
M226.000000,101.531342 
	C224.727615,96.256981 223.639084,90.465958 222.153641,84.778587 
	C210.818802,41.380566 174.165680,8.593961 129.928467,2.196730 
	C128.057190,1.926120 126.165871,1.794051 124.141937,1.298721 
	C157.926575,1.000000 191.853149,1.000000 226.000000,1.000000 
	C226.000000,34.353905 226.000000,67.708290 226.000000,101.531342 
z"/>
<path fill="#FEFEFF" opacity="1.000000" stroke="none" 
	d="
M100.531342,1.000001 
	C95.781204,2.227141 90.530907,3.334682 85.348557,4.700155 
	C39.857334,16.686445 7.322927,54.037731 1.358283,100.822128 
	C1.000000,67.739731 1.000000,34.479462 1.000000,1.000000 
	C34.020573,1.000000 67.041626,1.000000 100.531342,1.000001 
z"/>
<path fill="#96B9F7" opacity="1.000000" stroke="none" 
	d="
M1.000000,102.400009 
	C1.173927,103.189011 1.347855,104.378021 1.260891,105.783516 
	C1.000000,104.933342 1.000000,103.866676 1.000000,102.400009 
z"/>
<path fill="#0572F2" opacity="1.000000" stroke="none" 
	d="
M95.382538,86.249741 
	C95.730965,94.198769 95.805969,102.362297 95.780464,110.525497 
	C95.777794,111.379364 95.180855,112.231369 94.429642,113.078781 
	C94.004463,105.931824 93.941887,98.789177 94.062614,91.649635 
	C94.091934,89.915901 94.724884,88.192368 95.382538,86.249741 
z"/>
<path fill="#0572F2" opacity="1.000000" stroke="none" 
	d="
M68.880478,113.004768 
	C68.837959,113.123375 68.668175,113.173744 68.235550,113.186615 
	C68.202682,112.926842 68.462845,112.855972 68.880478,113.004768 
z"/>
<path fill="#0070F2" opacity="1.000000" stroke="none" 
	d="
M132.894180,112.987000 
	C132.836044,113.101418 132.665802,113.138863 132.259705,113.063782 
	C132.279327,112.795547 132.532059,112.781807 132.894180,112.987000 
z"/>
<path fill="#0070F2" opacity="1.000000" stroke="none" 
	d="
M161.820587,113.132996 
	C161.924026,113.213722 161.445175,113.219826 161.219833,113.139290 
	C161.244690,112.909676 161.485580,112.907516 161.820587,113.132996 
z"/>
</svg>