<svg version="1.1" id="Layer_1" xmlns="http://www.w3.org/2000/svg" xmlns:xlink="http://www.w3.org/1999/xlink" x="0px" y="0px"
	 width="100%" viewBox="0 0 560 560" enable-background="new 0 0 560 560" xml:space="preserve">
<path fill="#FFFFFF" opacity="1.000000" stroke="none" 
	d="
M386.000000,561.000000 
	C258.833344,561.000000 132.166656,560.980713 5.500084,561.094299 
	C1.750513,561.097656 0.904110,560.249268 0.906295,556.499939 
	C1.013331,372.833344 1.013331,189.166656 0.906295,5.500055 
	C0.904110,1.750716 1.750716,0.904110 5.500055,0.906295 
	C189.166656,1.013330 372.833344,1.013330 556.499939,0.906295 
	C560.249268,0.904110 561.095886,1.750716 561.093689,5.500055 
	C560.986694,189.166656 560.986694,372.833344 561.093750,556.499939 
	C561.095886,560.249268 560.250488,561.105652 556.499756,561.096497 
	C499.833435,560.957458 443.166656,561.000000 386.000000,561.000000 
z"/>
<path fill="#181616" opacity="1.000000" stroke="none" 
	d="
M409.252869,454.255371 
	C391.096863,468.364838 371.461548,479.038971 350.139069,486.615417 
	C339.162384,490.515778 332.976807,486.145569 333.020325,474.516388 
	C333.087067,456.685486 333.157867,438.854492 333.292511,421.024048 
	C333.405914,406.007904 330.884674,391.869904 319.460541,380.075806 
	C330.099091,378.451630 340.065613,376.942719 349.792328,374.137421 
	C392.264191,361.888062 409.527496,332.872375 413.934662,295.921448 
	C415.656586,281.484375 416.051971,267.044556 412.252045,252.758820 
	C409.206879,241.310532 403.990662,231.025894 396.337097,222.028854 
	C394.432861,219.790375 393.866486,218.004593 394.781555,214.981995 
	C399.839264,198.275436 398.166779,181.788712 392.620483,165.460342 
	C391.639679,162.572830 389.890991,162.059937 387.356812,162.097153 
	C379.406738,162.213898 371.920898,164.400375 364.631378,167.301544 
	C354.862640,171.189453 345.726715,176.318573 337.046021,182.214584 
	C334.611206,183.868301 332.512451,184.082169 329.655365,183.374390 
	C297.379425,175.378510 265.042938,175.374115 232.770981,183.366440 
	C229.664795,184.135727 227.498199,183.654129 224.942612,181.993698 
	C211.220016,173.077759 197.049957,165.114639 180.530121,162.543442 
	C171.602478,161.153931 170.667999,161.614609 168.231262,170.158432 
	C163.897919,185.352173 162.975723,200.625870 167.877274,215.889084 
	C168.582291,218.084442 168.112381,219.517029 166.680756,221.231735 
	C150.851196,240.191452 145.612976,262.220703 147.533875,286.483398 
	C148.577911,299.670563 150.530823,312.607086 155.409714,324.942383 
	C166.213760,352.258362 187.228180,367.535034 214.817627,374.987305 
	C223.669067,377.378204 232.717911,378.690094 242.447739,380.037415 
	C235.228241,387.928467 231.325821,396.884827 229.942673,406.945221 
	C229.643906,409.118256 227.685440,409.248718 226.254654,409.826599 
	C202.392426,419.464813 182.206207,412.881653 168.611801,391.128784 
	C161.621475,379.943329 152.320969,371.886017 138.940186,369.399780 
	C136.089630,368.870117 133.306458,369.051086 130.546753,369.891052 
	C126.118362,371.238922 125.418953,373.627319 128.637207,377.084900 
	C130.097565,378.653839 131.757156,380.159271 133.594772,381.234985 
	C144.280960,387.490112 151.910995,396.763550 155.731766,408.083038 
	C163.924927,432.356262 187.348022,442.624573 212.535492,440.479980 
	C217.009125,440.099060 221.492249,439.560242 225.892807,438.696198 
	C228.340057,438.215668 228.744141,438.975769 228.748703,441.113190 
	C228.774658,453.277954 229.073593,465.445129 228.906281,477.606323 
	C228.792908,485.848389 222.135818,489.942474 213.687393,487.145935 
	C194.936157,480.939117 177.341431,472.252686 161.426025,460.597046 
	C99.506485,415.250366 69.003777,353.925201 71.311768,277.327911 
	C74.267212,179.243607 147.667389,95.441284 244.217026,78.188347 
	C357.067566,58.022511 466.899384,133.203552 486.883911,246.032547 
	C501.728790,329.844147 475.139648,399.508636 409.252869,454.255371 
z"/>
</svg>